<svg xmlns="http://www.w3.org/2000/svg" width="1200" height="1500" viewBox="0 0 1200 1500" role="img" aria-label="Groundswell Overshirt placeholder">
  <defs>
    <linearGradient id="bg" x1="0" y1="0" x2="0" y2="1"><stop offset="0" stop-color="#f6f6f6"/><stop offset="1" stop-color="#e4e4e4"/></linearGradient>
    <filter id="g" x="0" y="0" width="100%" height="100%">
    <feTurbulence type="fractalNoise" baseFrequency="0.9" numOctaves="2" stitchTiles="stitch" result="n"/>
    <feColorMatrix type="saturate" values="0"/>
    <feComponentTransfer><feFuncA type="table" tableValues="0 0.06"/></feComponentTransfer>
  </filter>
  </defs>
  <rect width="1200" height="1500" fill="url(#bg)"/>
  <rect width="1200" height="1500" filter="url(#g)"/>
  <g transform="translate(159.99999999999994 230) scale(2.2)">
    <path d="M150 110 Q200 92 250 110 L330 145 L352 335 L292 345 L272 235 V395 H128 V235 L108 345 L48 335 L70 145 Z" fill="#23402f" stroke="#15261c" stroke-width="2" stroke-linejoin="round"/>
    <path d="M158 104 L200 154 L242 104 L226 94 L200 132 L174 94 Z" fill="#23402f" stroke="#15261c" stroke-width="2" stroke-linejoin="round"/>
    <path d="M200 154 V395" stroke="#15261c" stroke-width="1.5"/>
    <g fill="none" stroke="#15261c" stroke-width="1.5"><path d="M140 185 h42 v44 h-42 Z M218 185 h42 v44 h-42 Z M140 200 h42 M218 200 h42"/></g>
    <g fill="#15261c"><circle cx="200" cy="185" r="2.5"/><circle cx="200" cy="235" r="2.5"/><circle cx="200" cy="285" r="2.5"/><circle cx="200" cy="335" r="2.5"/></g></g>
  <text x="72" y="1404" font-family="'Cormorant Garamond', 'Times New Roman', Georgia, serif" font-size="56" fill="#0a0a0a" opacity="0.85">Groundswell Overshirt</text>
         <text x="72" y="1448" font-family="Inter, Helvetica, Arial, sans-serif" font-size="18" letter-spacing="4" fill="#0a0a0a" opacity="0.55">FOREST · SKETCH · PHOTOGRAPHY TO FOLLOW</text>
</svg>