<svg xmlns="http://www.w3.org/2000/svg" width="1200" height="1500" viewBox="0 0 1200 1500" role="img" aria-label="Harbour Rugby Shirt placeholder">
  <defs>
    <linearGradient id="bg" x1="0" y1="0" x2="0" y2="1"><stop offset="0" stop-color="#f6f6f6"/><stop offset="1" stop-color="#e4e4e4"/></linearGradient>
    <filter id="g" x="0" y="0" width="100%" height="100%">
    <feTurbulence type="fractalNoise" baseFrequency="0.9" numOctaves="2" stitchTiles="stitch" result="n"/>
    <feColorMatrix type="saturate" values="0"/>
    <feComponentTransfer><feFuncA type="table" tableValues="0 0.06"/></feComponentTransfer>
  </filter>
  </defs>
  <rect width="1200" height="1500" fill="url(#bg)"/>
  <rect width="1200" height="1500" filter="url(#g)"/>
  <g transform="translate(-40 -260) scale(3.6)">
    <defs><clipPath id="rugbyClip"><path d="M150 110 Q200 92 250 110 L330 145 L352 335 L292 345 L272 235 V395 H128 V235 L108 345 L48 335 L70 145 Z"/></clipPath></defs>
    <path d="M150 110 Q200 92 250 110 L330 145 L352 335 L292 345 L272 235 V395 H128 V235 L108 345 L48 335 L70 145 Z" fill="#1f3a4d" stroke="#13232e" stroke-width="2" stroke-linejoin="round"/>
    <g clip-path="url(#rugbyClip)" fill="#ffffff" opacity="0.9">
      <rect x="0" y="200" width="400" height="34"/><rect x="0" y="268" width="400" height="34"/><rect x="0" y="336" width="400" height="34"/>
    </g>
    <path d="M160 104 L200 150 L240 104 L228 96 L200 128 L172 96 Z" fill="#ffffff" stroke="#13232e" stroke-width="2" stroke-linejoin="round"/>
    <path d="M200 150 V205" stroke="#13232e" stroke-width="2"/></g>
  <text x="72" y="1448" font-family="Inter, Helvetica, Arial, sans-serif" font-size="18" letter-spacing="4" fill="#0a0a0a" opacity="0.55">HEAVYWEIGHT ORGANIC COTTON JERSEY, 320 GSM</text>
</svg>